<svg width="48" height="48" viewBox="0 0 48 48" fill="none" xmlns="http://www.w3.org/2000/svg">
<path d="M9.96976 4.875C7.23092 4.875 5.20434 7.27215 5.29505 9.87188C5.3821 12.3695 5.26902 15.6042 4.45464 18.2422C3.63783 20.8879 2.25641 22.5638 0 22.779V25.2083C2.25641 25.4235 3.63783 27.0994 4.45464 29.7451C5.26902 32.3831 5.3821 35.6178 5.29505 38.1154C5.20434 40.7147 7.23092 43.1123 9.97017 43.1123H38.0339C40.7727 43.1123 42.7989 40.7151 42.7082 38.1154C42.6212 35.6178 42.7342 32.3831 43.5486 29.7451C44.3658 27.0994 45.7436 25.4235 48 25.2083V22.779C45.7436 22.5638 44.3658 20.8879 43.5486 18.2422C42.7342 15.6046 42.6212 12.3695 42.7082 9.87188C42.7989 7.27256 40.7727 4.875 38.0339 4.875H9.96936H9.96976ZM32.5424 28.4125C32.5424 31.9922 29.8723 34.1631 25.4412 34.1631H17.8983C17.449 34.1631 17.0847 33.7989 17.0847 33.3496V14.6377C17.0847 14.1884 17.449 13.8242 17.8983 13.8242H25.3981C29.0929 13.8242 31.5177 15.8255 31.5177 18.8983C31.5177 21.0551 29.8865 22.9861 27.8083 23.3241V23.4368C30.6374 23.7471 32.5424 25.7062 32.5424 28.4125ZM24.6187 16.4031H20.3178V22.478H23.9402C26.7405 22.478 28.2846 21.3504 28.2846 19.3348C28.2846 17.4461 26.9569 16.4031 24.6187 16.4031ZM20.3178 24.8886V31.5833H24.7769C27.6923 31.5833 29.2369 30.4134 29.2369 28.2148C29.2369 26.0157 27.6492 24.8882 24.5894 24.8882H20.3178V24.8886Z" fill="#632BFF"/>
</svg>
