<svg width="48" height="48" viewBox="0 0 48 48" fill="none" xmlns="http://www.w3.org/2000/svg">
<path fill-rule="evenodd" clip-rule="evenodd" d="M6.66435 43.2015L2.8125 0H45.1382L41.2822 43.1944L23.9497 48L6.66435 43.2015Z" fill="#0071BC"/>
<path fill-rule="evenodd" clip-rule="evenodd" d="M24.0107 44.3245L37.9989 40.4764L41.2762 3.59778H24.0107V44.3245Z" fill="#29ABE2"/>
<path fill-rule="evenodd" clip-rule="evenodd" d="M11.6289 19.4698L12.0929 24.7605L24.0104 19.4698V14.1705L11.6289 19.4698Z" fill="#B3B3B3"/>
<path fill-rule="evenodd" clip-rule="evenodd" d="M37.2098 8.51379L24.0107 14.1705V19.4698L36.7547 13.8045L37.2098 8.51379Z" fill="#E6E6E6"/>
<path fill-rule="evenodd" clip-rule="evenodd" d="M24.011 33.3129L23.97 33.319L18.0598 31.7318L17.6737 27.5117H12.3545L13.0968 35.8255L23.9689 38.8359L24.011 38.8259V33.3129Z" fill="#E6E6E6"/>
<path fill-rule="evenodd" clip-rule="evenodd" d="M24.0107 19.4698V24.7606H30.4815L29.8934 31.6777L24.0107 33.3174V38.83L34.8468 35.8197L36.2737 19.4698H24.0107Z" fill="white"/>
<path fill-rule="evenodd" clip-rule="evenodd" d="M24.0104 19.4698H11.6289L12.0929 24.7606H24.0104V19.4698Z" fill="#E6E6E6"/>
<path fill-rule="evenodd" clip-rule="evenodd" d="M24.0107 13.8045V8.51379H23.9569H10.6885L11.158 13.8045H24.0107Z" fill="#E6E6E6"/>
<path fill-rule="evenodd" clip-rule="evenodd" d="M24.0107 8.51379V13.7382V13.8045H36.7547L37.2098 8.51379H24.0107Z" fill="white"/>
</svg>
