<svg width="49" height="48" viewBox="0 0 49 48" fill="none" xmlns="http://www.w3.org/2000/svg">
<path fill-rule="evenodd" clip-rule="evenodd" d="M47.0965 21.8617L26.1386 0.905352C24.9325 -0.301784 22.9749 -0.301784 21.7672 0.905352L17.4153 5.25726L22.9359 10.7779C24.2189 10.3444 25.6899 10.6351 26.7127 11.6579C27.7402 12.687 28.0288 14.1707 27.5849 15.4579L32.9053 20.7783C34.1925 20.3349 35.6777 20.6219 36.7058 21.6516C38.1426 23.0878 38.1426 25.4157 36.7058 26.853C35.2685 28.2903 32.9406 28.2903 31.5028 26.853C30.422 25.7712 30.155 24.1838 30.7022 22.8524L25.7404 17.8906L25.7399 30.9479C26.0902 31.1217 26.4209 31.3529 26.7127 31.6436C28.1495 33.0799 28.1495 35.4078 26.7127 36.8461C25.2754 38.2829 22.9464 38.2829 21.5113 36.8461C20.0745 35.4078 20.0745 33.0799 21.5113 31.6436C21.8662 31.2892 22.277 31.0211 22.7152 30.841V17.662C22.277 17.4829 21.8668 17.2164 21.5113 16.8594C20.4226 15.7723 20.1609 14.1749 20.7186 12.8382L15.277 7.39555L0.906724 21.7648C-0.300939 22.973 -0.300939 24.9306 0.906724 26.1378L21.8647 47.0946C23.0713 48.3018 25.0284 48.3018 26.2366 47.0946L47.0965 26.2352C48.3037 25.0275 48.3037 23.0688 47.0965 21.8617Z" fill="#DE4C36"/>
</svg>
