<svg width="48" height="48" viewBox="0 0 48 48" fill="none" xmlns="http://www.w3.org/2000/svg">
<path fill-rule="evenodd" clip-rule="evenodd" d="M6.66424 43.2018L2.8125 0H45.1365L41.2806 43.195L23.9486 48L6.66424 43.2018Z" fill="#E44D26"/>
<path fill-rule="evenodd" clip-rule="evenodd" d="M23.9746 44.3272L37.9798 40.4444L41.2748 3.53235H23.9746V44.3272Z" fill="#F16529"/>
<path d="M16.9633 19.5553H23.9746V24.8537H12.1176L10.6885 8.83093H23.9746V14.1295H16.4791L16.9633 19.5553Z" fill="#EBEBEB"/>
<path d="M23.9514 33.3223L23.9746 33.3161V38.8288L23.9503 38.8355L13.0966 35.8225L12.3543 27.5031H17.6732L18.0504 31.7289L23.9514 33.3223Z" fill="#EBEBEB"/>
<path d="M23.9561 8.83093H37.2289L36.7545 14.1295H23.9561V8.83093Z" fill="white"/>
<path d="M23.9561 24.8537V19.5553H36.2724L36.1431 20.9781L34.8183 35.8225L23.9561 38.833V33.3205L29.8656 31.7255L30.4806 24.8537H23.9561Z" fill="white"/>
</svg>
