<svg width="48" height="48" viewBox="0 0 48 48" fill="none" xmlns="http://www.w3.org/2000/svg">
<g clip-path="url(#clip0_850_12492)">
<path fill-rule="evenodd" clip-rule="evenodd" d="M23.9603 35.455C34.3307 49.5923 44.4797 31.5091 44.4648 20.6346C44.4472 7.77739 31.4157 0.591553 23.9518 0.591553C11.9716 0.591553 0.5625 10.4927 0.5625 24.0396C0.5625 39.097 13.6407 47.4375 23.9518 47.4375C21.6185 47.1015 13.8426 45.4354 13.7381 27.5254C13.6678 15.4121 17.6895 10.5726 23.9349 12.7014C24.0748 12.7533 30.8238 15.4156 30.8238 24.1127C30.8238 32.7729 23.9603 35.455 23.9603 35.455Z" fill="url(#paint0_linear_850_12492)"/>
<path fill-rule="evenodd" clip-rule="evenodd" d="M23.9481 12.6916C17.0956 10.3298 8.70117 15.9775 8.70117 27.2899C8.70117 45.761 22.3888 47.4375 24.0481 47.4375C36.0283 47.4375 47.4374 37.5363 47.4374 23.9895C47.4374 8.93206 34.3592 0.591542 24.0481 0.591542C26.904 0.196034 39.4409 3.68234 39.4409 20.8172C39.4409 31.9913 30.0797 38.0745 23.9911 35.4754C23.8512 35.4235 17.1022 32.7612 17.1022 24.0641C17.1022 15.404 23.9481 12.6916 23.9481 12.6916Z" fill="url(#paint1_linear_850_12492)"/>
</g>
<defs>
<linearGradient id="paint0_linear_850_12492" x1="-6.09486" y1="27.1242" x2="28.6347" y2="53.9135" gradientUnits="userSpaceOnUse">
<stop/>
<stop offset="1" stop-color="white"/>
</linearGradient>
<linearGradient id="paint1_linear_850_12492" x1="49.8351" y1="15.2995" x2="14.0738" y2="-1.37752" gradientUnits="userSpaceOnUse">
<stop/>
<stop offset="1" stop-color="white"/>
</linearGradient>
<clipPath id="clip0_850_12492">
<rect width="48" height="48" fill="white"/>
</clipPath>
</defs>
</svg>
