<svg width="48" height="48" viewBox="0 0 48 48" fill="none" xmlns="http://www.w3.org/2000/svg">
<path d="M0.347656 5.3125H38.0529V42.625H0.347656V5.3125Z" fill="#F7DF1E"/>
<path d="M38.4 42.9688H0V4.96875H38.4V42.9688ZM0.7212 42.2507H37.6784V5.68675H0.7212V42.2507Z" fill="#EEEEEE"/>
<path d="M25.7175 34.5984C26.4787 35.8416 27.4691 36.7552 29.2211 36.7552C30.6927 36.7552 31.6327 36.0196 31.6327 35.0036C31.6327 33.786 30.6671 33.3544 29.0471 32.646L28.1595 32.2652C25.5967 31.1736 23.8943 29.8056 23.8943 26.914C23.8943 24.2504 25.9235 22.2228 29.0955 22.2228C31.3535 22.2228 32.9771 23.0088 34.1467 25.0664L31.3811 26.842C30.7723 25.75 30.1155 25.32 29.0955 25.32C28.0551 25.32 27.3959 25.98 27.3959 26.842C27.3959 27.9072 28.0559 28.3388 29.5795 28.9988L30.4675 29.3792C33.4851 30.6732 35.1887 31.9924 35.1887 34.9584C35.1887 38.1556 32.6771 39.9076 29.3035 39.9076C26.0051 39.9076 23.8743 38.336 22.8315 36.276C22.8315 36.2752 25.7175 34.5984 25.7175 34.5984ZM38.5291 34.5984C39.2903 35.8416 40.2807 36.7552 42.0327 36.7552C43.5043 36.7552 44.4443 36.0196 44.4443 35.0036C44.4443 33.786 43.4787 33.3544 41.8587 32.646L40.9711 32.2652C38.4083 31.1736 36.7059 29.8056 36.7059 26.914C36.7059 24.2504 38.7351 22.2228 41.9071 22.2228C44.1651 22.2228 45.7887 23.0088 46.9583 25.0664L44.1927 26.842C43.5839 25.75 42.9271 25.32 41.9071 25.32C40.8667 25.32 40.2075 25.98 40.2075 26.842C40.2075 27.9072 40.8675 28.3388 42.3911 28.9988L43.2791 29.3792C46.2963 30.6728 47.9999 31.992 47.9999 34.958C47.9999 38.1552 45.4883 39.9072 42.1147 39.9072C38.8163 39.9072 36.6855 38.3356 35.6427 36.2756L38.5291 34.5984ZM13.1719 34.9064C13.7299 35.8964 14.2375 36.7332 15.4575 36.7332C16.6243 36.7332 17.3603 36.2768 17.3603 34.5016V22.4252H20.9115V34.5492C20.9115 38.2264 18.7555 39.9004 15.6083 39.9004C12.7647 39.9004 11.1179 38.4288 10.2803 36.6564L13.1719 34.9064C13.1719 34.9064 13.1719 34.906 13.1719 34.9064Z" fill="black"/>
</svg>
