<svg width="48" height="48" viewBox="0 0 48 48" fill="none" xmlns="http://www.w3.org/2000/svg">
<path fill-rule="evenodd" clip-rule="evenodd" d="M15.906 29.372C15.1431 29.8491 13.9936 30.622 13.1044 31.4627C11.6446 32.8413 11.3391 34.7536 12.1092 35.2004C12.8216 35.6133 14.4847 35.1219 15.675 33.8237C16.9241 32.4607 17.4393 30.7328 16.9072 28.7712C16.8447 28.8085 16.7834 28.8459 16.7232 28.8807L16.7245 28.8833L16.6437 28.9291C16.3332 29.1145 16.0794 29.2674 15.906 29.372ZM37.3454 28.753C36.9133 29.6921 36.8916 29.9943 37.0229 30.0883C37.6499 29.863 38.6873 29.3201 38.6955 27.8654C38.6968 27.6475 38.6488 27.4137 38.5716 27.1694C37.9013 27.763 37.5149 28.3845 37.3454 28.753ZM44.0733 25.9136C42.3982 25.7184 41.0911 25.9533 40.0767 26.376C40.2646 26.8649 40.4089 27.3741 40.4293 27.8871C40.4764 29.0131 39.7013 29.8464 38.8936 30.4413C38.422 30.7881 37.9201 31.0193 37.4988 31.1589C37.162 31.3009 36.7142 31.4478 36.3964 31.383C35.6959 31.2406 35.323 30.6183 35.7996 29.2456C36.057 28.5027 36.7995 27.3718 37.9982 26.3978C37.725 25.8354 37.4205 25.2623 37.2653 24.7358C36.9595 23.698 36.8671 23.0706 36.8671 23.0706C36.8671 23.0706 35.8792 25.1189 34.6046 26.9817C34.5311 27.09 34.4577 27.1961 34.3842 27.3019C34.6346 27.8837 34.8318 28.4989 34.8585 29.1192C34.9054 30.245 34.418 31.0964 33.6092 31.6899C33.1713 32.0128 32.7042 32.2358 32.3034 32.3777C32.0471 32.4896 31.5259 32.6737 30.7847 32.7232C30.3793 32.7509 29.9893 32.7258 29.7716 32.5608C29.4719 32.3344 29.4358 32.055 29.591 31.6732C29.7222 31.3492 30.7041 30.2283 31.5274 29.2469C31.7548 28.9759 31.9713 28.6989 32.1651 28.4425L32.1603 28.4315C32.1603 28.4317 32.3095 28.239 32.5515 27.903C32.2506 27.2552 31.8691 26.5807 31.6898 25.9691C31.384 24.9312 31.2915 24.3037 31.2915 24.3037C31.2915 24.3037 30.29 26.8711 29.2468 28.9206C28.4394 30.5079 27.9001 31.4698 27.6572 31.8912L27.6547 31.9081C27.6547 31.9081 27.6184 31.9697 27.5559 32.066L27.5092 32.1441L27.5079 32.1368C27.237 32.5368 26.6293 33.3206 26.0252 33.3206C24.3669 33.3206 24.9757 29.9525 24.9757 29.9525C24.9757 29.9525 24.4909 31.2001 23.9444 32.2706C23.4993 33.1435 23.0937 33.8831 22.2068 33.8831C21.9517 33.8831 21.5473 33.8758 21.2115 33.5565C20.4497 32.8328 19.8673 30.9951 19.9815 29.5719C20.0789 28.3618 20.2655 27.5236 20.5206 26.8242C20.0656 27.0721 19.5398 27.3661 19.0043 27.6804L18.1811 28.1655L18.2076 28.2138C18.8887 29.5312 19.0704 32.4176 17.5853 34.6332C16.1004 36.85 13.3361 38.1988 10.6429 37.4499C9.77382 37.2077 8.46099 35.4099 9.59335 32.904C10.5922 30.6942 14.584 28.6051 15.6359 28.0837L15.9247 27.9247C13.8273 26.0895 8.58978 23.6138 7.85576 19.811C7.64872 18.7405 8.15059 16.1804 11.2939 13.2375C13.9377 10.7629 17.6155 8.86751 21.0129 7.65968C26.7207 5.63071 32.7513 6.82755 33.6791 10.4666C34.5913 14.0455 31.4865 18.3264 27.5103 19.8653C23.9602 21.2391 21.0249 21.0213 19.8191 20.6252C18.4483 20.1749 17.6444 19.2704 17.4483 18.7598C17.3712 18.56 17.2387 18.2242 17.4483 18.1085C17.577 18.0375 17.6287 18.0544 17.9729 18.4348C18.3003 18.7961 19.6168 19.7655 22.1176 19.4848C28.6801 18.7492 32.6332 13.647 31.384 10.9014C30.5092 8.97956 25.4512 8.11249 19.1318 11.2638C11.4177 15.1099 10.999 18.2806 10.9329 19.4848C10.7523 22.7974 15.0184 24.5399 17.3268 27.0035L17.4157 27.1011C17.8477 26.8627 18.3039 26.6111 18.7515 26.3655C19.9154 25.7259 21.0129 25.1261 21.5243 24.8467C22.3368 23.6658 23.9853 22.3626 25.1755 22.3626C27.0782 22.3626 26.4247 25.0974 26.4247 25.0974C26.4247 25.0974 26.4633 24.9722 26.5149 24.9711C26.5691 24.9696 26.7786 24.6108 27.3659 24.8251C27.97 25.0467 27.8327 25.4707 27.8365 25.514C27.8437 25.5981 27.1228 28.0294 26.8232 29.5888C26.6798 30.333 26.7628 30.875 26.8052 30.875C26.8641 30.875 26.9845 30.6859 27.0964 30.4824L27.0939 30.4764C27.0939 30.4764 27.1781 30.3223 27.319 30.0454L27.3467 29.9875L27.3479 29.9901C27.5141 29.6649 27.7474 29.1868 28.0169 28.5944C28.5452 27.4301 30.5609 22.9347 30.7319 22.4375C30.9026 21.9402 30.9917 21.426 31.0761 21.2055C31.1591 20.9852 31.8716 20.819 32.7042 20.8251C33.537 20.8311 33.6215 21.1863 33.6272 21.2598C33.6333 21.3332 33.2313 22.3195 33.1387 23.0166C33.0473 23.7139 33.1352 24.0617 33.211 24.6471C33.2604 25.0298 33.4998 25.5153 33.7828 26.0655C34.6444 24.6566 36.1605 21.9617 36.3062 21.2067C36.406 20.6902 36.5661 20.1952 36.6504 19.9747C36.7346 19.7544 37.446 19.5883 38.2786 19.5943C39.1114 19.6003 39.1955 19.9555 39.2016 20.029C39.2077 20.1025 38.8044 21.0887 38.713 21.786C38.6215 22.4819 38.7096 22.8312 38.7852 23.4164C38.8503 23.9173 39.2377 24.5905 39.6218 25.3561C40.6698 24.8395 41.9034 24.4928 43.3476 24.4856C43.9456 24.4822 44.6401 24.5422 44.9987 24.6541V13.1338C44.9987 12.321 44.5822 11.5721 43.8784 11.1664L25.0855 0.304418C24.3828 -0.101473 23.5223 -0.101473 22.8194 0.304418L4.07838 11.1611C3.37554 11.567 3 12.3173 3 13.1287V34.8619C3 35.6734 3.37784 36.4236 4.07953 36.8294L22.8508 47.6946C23.5535 48.1018 24.4056 48.1018 25.1083 47.6946L43.888 36.8294C44.5907 36.4223 45.0001 35.6732 45.0001 34.8619V26.0787C44.7617 26.0085 44.4127 25.9532 44.0733 25.9136ZM23.8541 24.7753C23.451 25.2268 22.7639 26.3912 22.4425 27.3657C21.8035 29.3007 22.0803 31.2671 22.5328 31.3853C23.061 31.5236 23.9276 28.9371 24.3425 27.9255C24.6026 27.2921 25.6135 24.4805 25.392 24.1048C25.2191 23.811 24.5028 24.0482 23.8541 24.7753ZM31.1663 31.2975C31.1663 31.2975 31.0388 31.4181 31.0939 31.4517C31.1686 31.4964 31.3298 31.4384 31.5055 31.3469C32.0027 31.034 33.1181 30.2536 33.1206 29.0987C33.1206 29.0651 33.1193 29.0326 33.117 28.9977C32.8582 29.3373 32.6199 29.6395 32.4141 29.8959C32.0627 30.333 31.1663 31.2975 31.1663 31.2975Z" fill="#8CC84B"/>
</svg>
